<svg xmlns="http://www.w3.org/2000/svg" width="48" height="48" viewBox="0 0 48 48"><path fill="#991504" d="M30,10H18V6c0,0,3-2,6-2s6,2,6,2V10z"/><path fill="#5D4037" d="M7 40H11V43H7zM37 40H41V43H37z"/><path fill="#FF3D00" d="M11 41H7c-1 0-.997-1.374-.99-2.042.142-13.735 1.738-21.948 4.869-25.079l.317-.317 8.271-4.398 2.817 5.298-7.369 3.918c-.702 1.022-2.743 5.304-2.905 20.642C12.003 39.661 12 41 11 41zM41 41h-4c-1 0-1.004-1.354-1.012-2-.162-15.286-2.192-19.579-2.898-20.614l-7.605-3.978 2.781-5.316 8.531 4.462.324.325C40.255 17.013 41.852 25.24 41.99 39 41.997 39.654 42 41 41 41z"/><path fill="#FF3D00" d="M34 13L28 9 20 9 14 13 14 44 34 44z"/><path fill="#DD2C00" d="M24,8c-3,0-6-2-6-2v4c0,0,3,2,6,2s6-2,6-2V6C30,6,27,8,24,8z"/><g><path fill="#BA2102" d="M17 29H19V37H17zM29 29H31V37H29zM24 8c-.335 0-.669-.028-1-.072V44h2V7.928C24.669 7.972 24.335 8 24 8z"/></g></svg>